<svg width="53" height="53" viewBox="0 0 53 53" fill="none" xmlns="http://www.w3.org/2000/svg">
<path d="M14.5268 9.51591L6.02273 18.0682C-1.99955 26.0423 -1.99955 39.0032 6.02273 46.9773C14.045 54.9514 26.9577 54.9995 34.9318 46.9773L49.3864 32.5227C51.7955 30.1859 51.7955 26.3555 49.3864 23.9945C49.1455 23.7055 48.8323 23.4405 48.495 23.2236L49.3864 22.2841C51.7955 19.9473 51.7955 16.1168 49.3864 13.7559C49.0491 13.3705 48.5914 13.0332 48.1818 12.7682C49.0973 10.5518 48.6877 7.90182 46.8809 6.095C44.785 3.99909 41.5327 3.78227 39.1718 5.42045C38.6816 4.66539 38.0294 4.02896 37.2626 3.55735C36.4958 3.08574 35.6336 2.79079 34.7386 2.6939C33.8436 2.59702 32.9382 2.70064 32.0882 2.99724C31.2383 3.29383 30.465 3.77597 29.8245 4.40864L23.7777 10.4555C23.5609 10.1182 23.2959 9.805 23.0068 9.51591C21.8699 8.41498 20.3494 7.79943 18.7668 7.79943C17.1842 7.79943 15.6637 8.41498 14.5268 9.51591ZM17.9236 12.9368C18.4055 12.455 19.1523 12.455 19.6341 12.9368C20.1159 13.4186 20.1159 14.1655 19.6341 14.6473L11.9732 22.3082C13.3266 23.6633 14.0868 25.5002 14.0868 27.4155C14.0868 29.3307 13.3266 31.1676 11.9732 32.5227L15.37 35.9195C17.0258 34.2622 18.1628 32.1582 18.642 29.865C19.1212 27.5717 18.9218 25.1886 18.0682 23.0068L33.2455 7.82955C33.7273 7.34773 34.4741 7.34773 34.9318 7.82955C35.3895 8.31136 35.4377 9.05818 34.9318 9.54L23.8741 20.6218L27.2709 24.0186L41.7495 9.54C42.2314 9.05818 42.9782 9.05818 43.46 9.54C43.9418 10.0218 43.9418 10.7686 43.46 11.2505L28.9814 25.7291L32.3782 29.1259L44.3032 17.2009C44.785 16.7191 45.5318 16.7191 46.0136 17.2009C46.4955 17.6827 46.4955 18.4295 46.0136 18.9114L32.3782 32.5227L35.775 35.9436L44.3032 27.4155C44.785 26.9336 45.5318 26.9336 46.0136 27.4155C46.4955 27.8973 46.4955 28.6441 46.0136 29.1259L31.5591 43.6045C25.44 49.7236 15.5386 49.7236 9.41955 43.6045C3.30045 37.4855 3.30045 27.5841 9.41955 21.465L17.9236 12.9368ZM53 38.5455C53 46.5195 46.5195 53 38.5455 53V49.3864C44.5682 49.3864 49.3864 44.5682 49.3864 38.5455H53ZM0 14.4545C0 6.48045 6.48045 0 14.4545 0V3.61364C8.43182 3.61364 3.61364 8.43182 3.61364 14.4545H0Z" fill="#FD3F04"/>
</svg>
