<svg width="129" height="129" viewBox="0 0 129 129" fill="none" xmlns="http://www.w3.org/2000/svg">
<path d="M116.508 42.9574L116.507 42.9558C115.306 40.0597 114.782 36.5943 114.298 33.3903L114.285 33.3058L114.285 33.3056C113.885 30.657 113.489 28.0524 112.765 25.6705C112.044 23.2983 111.017 21.2178 109.399 19.5998C107.779 17.9816 105.698 16.9537 103.325 16.2322C100.942 15.5078 98.3379 15.1116 95.6891 14.71C95.689 14.7099 95.6889 14.7099 95.6887 14.7099L95.604 14.6971C92.4002 14.2126 88.9351 13.6886 86.0392 12.4878L86.0389 12.4877C83.3012 11.3516 80.7048 9.41366 78.0905 7.46235L77.9989 7.39395L77.998 7.39329C73.5964 4.10064 69.3818 1 64.4978 1C59.6136 1 55.3992 4.10071 50.993 7.39184L50.9213 7.44535C48.303 9.40118 45.6985 11.3467 42.9562 12.4857L42.9552 12.4861C40.0444 13.6916 36.5634 14.2181 33.3473 14.7044L33.3024 14.7112L33.3017 14.7113C30.654 15.1097 28.0497 15.5049 25.6683 16.2291C23.2962 16.9504 21.2155 17.9789 19.5975 19.5974L19.5972 19.5977C17.9787 21.2157 16.951 23.2956 16.2296 25.6671C15.5054 28.0481 15.1095 30.6517 14.7079 33.3004C14.7078 33.3006 14.7078 33.3008 14.7078 33.301L14.702 33.3392C14.2154 36.5603 13.6891 40.044 12.4827 42.9558L12.4825 42.9563C11.3332 45.7256 9.36754 48.3526 7.38865 50.9966C4.10098 55.4 1 59.6144 1 64.4985C1 69.3824 4.10054 73.5948 7.38841 77.9971C7.38846 77.9971 7.3885 77.9972 7.38855 77.9972L7.43857 78.0642C9.39869 80.6873 11.3461 83.2934 12.4859 86.0432C13.6915 88.9509 14.2179 92.432 14.7042 95.6479L14.7111 95.6931L14.7111 95.6933C15.1112 98.3419 15.5066 100.947 16.2306 103.328C16.9517 105.701 17.9794 107.781 19.5974 109.399C21.2153 111.017 23.2959 112.045 25.6683 112.766C28.0501 113.49 30.6547 113.886 33.3033 114.286L33.3035 114.286L33.3883 114.299C36.5924 114.783 40.0573 115.307 42.9563 116.508L42.957 116.508C45.7108 117.651 48.3212 119.605 50.9487 121.571L50.994 121.605L116.508 42.9574ZM116.508 42.9574C117.65 45.6991 119.595 48.3033 121.551 50.9219L121.604 50.9933C124.895 55.4 127.999 59.6144 128 64.4981C128 69.3816 124.897 73.5926 121.606 77.9994C121.605 77.9995 121.605 77.9997 121.605 77.9999L121.577 78.0378C119.608 80.6703 117.652 83.2861 116.508 86.0424L116.508 86.0437C115.305 88.9531 114.778 92.4332 114.292 95.6512L114.286 95.6898L114.286 95.6899C113.886 98.3386 113.49 100.943 112.766 103.325C112.044 105.698 111.016 107.78 109.396 109.399L109.396 109.4C107.778 111.019 105.697 112.047 103.324 112.768C100.942 113.492 98.3373 113.887 95.6897 114.289L95.6876 114.289C92.4592 114.774 88.9612 115.3 86.0412 116.507L86.039 116.508C83.3019 117.648 80.7039 119.586 78.0895 121.537L77.9979 121.605L77.9968 121.606M116.508 42.9574L77.9968 121.606M77.9968 121.606C73.5952 124.899 69.3825 128 64.4989 128C59.6154 128 55.4013 124.897 50.9949 121.606L77.9968 121.606Z" stroke="#FF4005" stroke-width="2"/>
</svg>
