<svg width="142" height="142" viewBox="0 0 142 142" fill="none" xmlns="http://www.w3.org/2000/svg">
<path d="M134.741 55.4735C132.546 52.5356 130.471 49.7579 129.265 46.8631C127.993 43.7953 127.433 40.0847 126.89 36.4976C126.014 30.6985 125.108 24.7031 121.202 20.7963C117.291 16.8895 111.296 15.9833 105.497 15.104C101.91 14.5615 98.1992 14.0015 95.1314 12.7295C92.2342 11.5271 89.459 9.45224 86.5176 7.25691C81.7454 3.68704 76.8061 0 70.9976 0C65.189 0 60.2497 3.68704 55.4731 7.25483C52.5352 9.44924 49.7576 11.5251 46.8628 12.7274C43.7914 13.9994 40.0809 14.5629 36.4939 15.1054C30.696 15.9778 24.7007 16.8862 20.7939 20.7941C16.886 24.7009 15.981 30.6928 15.1016 36.4919C14.5591 40.0826 13.9957 43.7931 12.7237 46.8633C11.5214 49.7606 9.45006 52.5393 7.25118 55.4772C3.6873 60.2506 0 65.19 0 70.9983C0 76.8066 3.687 81.7439 7.25118 86.5161C9.44905 89.4575 11.5249 92.2349 12.7273 95.1357C13.9993 98.2036 14.5627 101.914 15.1052 105.501C15.9811 111.3 16.8872 117.296 20.7939 121.203C24.7007 125.109 30.696 126.015 36.495 126.891C40.0821 127.434 43.7926 127.994 46.864 129.266C49.7612 130.468 52.5364 132.543 55.4743 134.742C60.2509 138.309 65.1905 142 70.9988 142C76.807 142 81.7442 138.313 86.5164 134.742C89.4577 132.547 92.2352 130.472 95.1326 129.266C98.2004 127.997 101.911 127.434 105.498 126.895C111.293 126.015 117.292 125.113 121.199 121.202C125.109 117.292 126.015 111.297 126.891 105.498C127.434 101.91 127.997 98.2035 129.266 95.1353C130.468 92.2381 132.543 89.4593 134.742 86.519C138.309 81.7423 142 76.8063 142 70.9979C141.999 65.1896 138.308 60.2501 134.741 55.4735Z" fill="#FFC6F2"/>
</svg>
