<svg width="171" height="171" viewBox="0 0 171 171" fill="none" xmlns="http://www.w3.org/2000/svg">
<path d="M85.5 0L96.8288 13.9731L111.921 4.18467L118.377 20.9746L135.756 16.329L136.708 34.2924L154.671 35.2444L150.025 52.6227L166.815 59.079L157.027 74.1712L171 85.5L157.027 96.8288L166.815 111.921L150.025 118.377L154.671 135.756L136.708 136.708L135.756 154.671L118.377 150.025L111.921 166.815L96.8288 157.027L85.5 171L74.1712 157.027L59.079 166.815L52.6227 150.025L35.2444 154.671L34.2924 136.708L16.329 135.756L20.9746 118.377L4.18467 111.921L13.9731 96.8288L0 85.5L13.9731 74.1712L4.18467 59.079L20.9746 52.6227L16.329 35.2444L34.2924 34.2924L35.2444 16.329L52.6227 20.9746L59.079 4.18467L74.1712 13.9731L85.5 0Z" fill="#808F85"/>
</svg>
