<svg width="18" height="18" viewBox="0 0 18 18" fill="none" xmlns="http://www.w3.org/2000/svg">
<path d="M6.84501 7.7385C7.00176 7.78944 7.1701 7.79274 7.32873 7.748C7.48736 7.70327 7.62916 7.61249 7.7362 7.48716C7.84324 7.36184 7.91071 7.20758 7.93008 7.0439C7.94945 6.88023 7.91986 6.71448 7.84503 6.56763C7.7702 6.42078 7.65351 6.29941 7.50971 6.21888C7.36591 6.13834 7.20145 6.10226 7.03714 6.11519C6.87283 6.12812 6.71605 6.18949 6.58661 6.29153C6.45718 6.39356 6.36091 6.53169 6.30998 6.68844C6.24168 6.89864 6.25968 7.12736 6.36002 7.32428C6.46036 7.52121 6.63481 7.67021 6.84501 7.7385ZM10.623 10.0263C10.6732 10.1238 10.7421 10.2104 10.8258 10.2812C10.9096 10.3521 11.0065 10.4056 11.111 10.4389C11.2151 10.4734 11.325 10.487 11.4344 10.479C11.5437 10.4709 11.6505 10.4413 11.7484 10.3919C11.8466 10.3424 11.934 10.2739 12.0057 10.1904C12.0773 10.1069 12.1317 10.01 12.1656 9.90539C12.1996 9.80077 12.2126 9.69045 12.2037 9.58079C12.1949 9.47114 12.1644 9.36433 12.114 9.26651L11.6914 8.43696L12.5209 8.01429C12.6188 7.9644 12.7059 7.89572 12.7773 7.81217C12.8487 7.72861 12.9029 7.63182 12.9368 7.52731C12.9708 7.42281 12.9838 7.31264 12.9752 7.20309C12.9666 7.09355 12.9365 6.98678 12.8866 6.88887C12.8367 6.79096 12.768 6.70384 12.6845 6.63248C12.6009 6.56112 12.5041 6.50691 12.3996 6.47295C12.2951 6.439 12.1849 6.42596 12.0754 6.43458C11.9659 6.4432 11.8591 6.47331 11.7612 6.5232L10.1861 7.32575C10.0879 7.37529 10.0004 7.44379 9.9288 7.5273C9.85718 7.6108 9.80281 7.70766 9.76881 7.81229C9.73482 7.91691 9.72188 8.02723 9.73073 8.13689C9.73959 8.24654 9.77007 8.35335 9.82041 8.45117L10.623 10.0263ZM11.5403 1.37812C9.97277 0.868806 8.28943 0.83575 6.70314 1.28313C5.11684 1.73051 3.69883 2.63824 2.62842 3.89153C1.55802 5.14481 0.883291 6.68736 0.689569 8.32412C0.495846 9.96087 0.791827 11.6183 1.54008 13.0869C2.28834 14.5554 3.45527 15.7691 4.89329 16.5744C6.33132 17.3797 7.97587 17.7406 9.61896 17.6112C11.2621 17.4819 12.8299 16.8683 14.1243 15.8479C15.4186 14.8275 16.3813 13.4462 16.8906 11.8787C17.2288 10.8379 17.3586 9.74074 17.2728 8.64977C17.1869 7.55879 16.887 6.49541 16.3902 5.52034C15.8934 4.54527 15.2094 3.6776 14.3772 2.96688C13.5451 2.25615 12.5811 1.71629 11.5403 1.37812ZM6.90502 15.644C5.65102 15.2365 4.54599 14.4664 3.72969 13.4309C2.91339 12.3954 2.42247 11.1411 2.31902 9.82666C2.21557 8.51218 2.50423 7.19654 3.1485 6.04612C3.79277 4.8957 4.76371 3.96216 5.93854 3.36355C7.11337 2.76494 8.43932 2.52816 9.74872 2.68314C11.0581 2.83811 12.2922 3.37789 13.2948 4.23422C14.2974 5.09054 15.0236 6.22495 15.3815 7.49399C15.7394 8.76303 15.713 10.1097 15.3055 11.3637C14.7591 13.0453 13.5671 14.4409 11.9917 15.2436C10.4163 16.0463 8.5866 16.1903 6.90502 15.644ZM10.2613 11.6787C9.5927 11.9337 8.85696 11.9522 8.1764 11.7311C7.49585 11.5099 6.91148 11.0625 6.52047 10.4632C6.40233 10.2761 6.2147 10.1436 5.99885 10.0948C5.783 10.0461 5.55662 10.085 5.3695 10.2032C5.18239 10.3213 5.04987 10.509 5.0011 10.7248C4.95232 10.9406 4.9913 11.167 5.10944 11.3541C5.69934 12.2929 6.60005 12.9948 7.65448 13.3374C8.70892 13.68 9.85016 13.6416 10.8792 13.2288C11.0847 13.1469 11.2493 12.9867 11.3368 12.7834C11.4242 12.5801 11.4272 12.3504 11.3453 12.1448C11.3047 12.043 11.2445 11.9503 11.1681 11.8717C11.0916 11.7932 11.0005 11.7305 10.8998 11.6873C10.6965 11.5998 10.4669 11.5968 10.2613 11.6787Z" fill="#FFC6F2"/>
</svg>
