<svg width="171" height="173" viewBox="0 0 171 173" fill="none" xmlns="http://www.w3.org/2000/svg">
<path d="M162.164 67.3807C159.536 63.8221 157.051 60.4577 155.608 56.9513C154.085 53.2353 153.414 48.7408 152.765 44.3959C151.716 37.3716 150.632 30.1096 145.955 25.3774C141.274 20.6452 134.096 19.5476 127.153 18.4824C122.859 17.8253 118.417 17.1471 114.744 15.6063C111.275 14.1499 107.953 11.6367 104.432 8.97756C98.7184 4.65349 92.8052 0.187499 85.8513 0.187499C78.8973 0.187499 72.9841 4.65349 67.2656 8.97504C63.7485 11.6331 60.4231 14.1474 56.9576 15.6038C53.2805 17.1445 48.8384 17.827 44.544 18.4841C37.6029 19.5409 30.4254 20.6412 25.7483 25.3748C21.0697 30.107 19.9863 37.3646 18.9336 44.3889C18.2841 48.7382 17.6096 53.2326 16.0868 56.9515C14.6473 60.4609 12.1676 63.8267 9.53515 67.3853C5.26853 73.1672 0.854157 79.15 0.854157 86.1855C0.854157 93.2209 5.26818 99.2012 9.53515 104.982C12.1664 108.544 14.6516 111.909 16.091 115.422C17.6139 119.138 18.2884 123.633 18.9378 127.978C19.9865 135.002 21.0712 142.264 25.7483 146.996C30.4254 151.728 37.6029 152.826 44.5454 153.887C48.8398 154.544 53.2819 155.222 56.959 156.763C60.4275 158.219 63.7498 160.733 67.267 163.396C72.9855 167.717 78.8991 172.187 85.8527 172.187C92.8062 172.187 98.717 167.721 104.43 163.396C107.951 160.738 111.277 158.224 114.745 156.763C118.418 155.226 122.86 154.544 127.155 153.891C134.093 152.826 141.275 151.732 145.952 146.996C150.633 142.26 151.718 134.998 152.766 127.973C153.416 123.628 154.09 119.138 155.609 115.422C157.049 111.912 159.533 108.547 162.165 104.985C166.436 99.1993 170.854 93.2204 170.854 86.185C170.853 79.1496 166.434 73.1665 162.164 67.3807Z" fill="#808F85"/>
</svg>
