<svg width="11" height="12" viewBox="0 0 11 12" fill="none" xmlns="http://www.w3.org/2000/svg">
<path d="M10.8165 7.69831L7.7014 5.89291L10.8165 4.08752C10.992 3.98577 11.0521 3.76065 10.9508 3.58432L10.217 2.30836C10.1157 2.13227 9.89133 2.07173 9.71579 2.17347L6.6007 3.97887V0.368307C6.6007 0.164817 6.43638 0 6.2338 0H4.7662C4.56362 0 4.3993 0.164817 4.3993 0.368307V3.9791L1.28421 2.1737C1.10867 2.07196 0.88431 2.1325 0.783018 2.30859L0.0492189 3.58432C-0.0520737 3.76042 0.00796855 3.98577 0.183512 4.08752L3.2986 5.89291L0.183512 7.69831C0.00796855 7.80005 -0.0520737 8.02541 0.0492189 8.20151L0.783018 9.47746C0.88431 9.65356 1.10867 9.71387 1.28421 9.61235L4.3993 7.80696V11.4175C4.3993 11.621 4.56362 11.7858 4.7662 11.7858H6.2338C6.43638 11.7858 6.6007 11.621 6.6007 11.4175V7.80673L9.71579 9.61212C9.89133 9.71387 10.1157 9.65356 10.217 9.47723L10.9508 8.20128C11.0521 8.02518 10.992 7.80005 10.8165 7.69831Z" fill="#5965CE"/>
</svg>
