<svg width="171" height="171" viewBox="0 0 171 171" fill="none" xmlns="http://www.w3.org/2000/svg">
<path d="M128.544 11.8154L131.369 29.5809L149.333 28.6499L146.53 46.4187L163.902 51.0846L155.745 67.1173L170.826 76.9234L158.114 89.6507L169.426 103.637L153.403 111.813L159.839 128.611L142.074 131.435L143.005 149.399L125.236 146.596L120.57 163.969L104.538 155.811L94.7315 170.892L82.0042 158.18L68.0179 169.492L59.8418 153.469L43.0443 159.906L40.2199 142.14L22.2554 143.071L25.0591 125.303L7.68618 120.637L15.8434 104.604L0.762697 94.7978L13.4751 82.0705L2.1627 68.0842L18.1858 59.9081L11.7491 43.1106L29.5146 40.2862L28.5837 22.3217L46.3524 25.1253L51.0183 7.75247L67.051 15.9097L76.8571 0.82898L89.5844 13.5413L103.571 2.22898L111.747 18.2521L128.544 11.8154Z" fill="#E0FD78"/>
</svg>
